<?xml version="1.0" standalone="yes"?>
<svg xmlns="http://www.w3.org/2000/svg" width="1080" height="1080">
<path style="fill:#111921; stroke:none;" d="M0 0L0 1080L1080 1080L1080 0L0 0z"/>
<path style="fill:#f2ab50; stroke:none;" d="M377 536C373.337 526.558 368.578 518.014 366.513 508C363.004 490.983 363.733 473.175 364.91 456C368.511 403.47 385.459 351.934 425 315.089C458.556 283.821 501.927 266.138 547 259.87C586.236 254.413 635.623 250.591 668 278.3C723.656 325.932 713.823 411.855 689.797 473C684.926 485.396 679.266 497.478 672.576 509C664.464 522.971 654.917 535.749 644.421 548C621.32 574.961 587.606 598.428 551 600C556.82 582.84 559.192 563.761 562.801 546C568.365 518.617 574.398 491.336 580.211 464C587.508 429.68 594.483 395.277 602.014 361C606.434 340.882 612.361 320.439 615 300C600.7 300.295 586.139 303.524 572 305.572C552.389 308.411 532.655 310.721 513 313.282C502.748 314.617 492.355 316.914 482 317C476.611 344.787 470.086 372.363 464.014 400C440.84 505.471 417.853 611.156 396.551 717C388.957 754.734 380.483 792.38 372.338 830C368.101 849.572 361.578 870.031 360 890L454 890L478 890C480.916 890 485.806 890.891 488.272 888.972C491.986 886.084 491.948 877.259 492.883 873C496.025 858.695 499.126 844.368 502 830C511.428 782.867 522.769 736.096 532.399 689C535.127 675.658 537.7 662.243 540.87 649C541.852 644.896 541.617 637.732 544.738 634.603C547.601 631.735 554.317 633 558 633C569.07 633 580.025 632.196 591 630.718C624.224 626.242 657.321 615.426 686 597.938C706.086 585.691 725.825 571.267 741.911 554C799.829 491.828 828.257 398.457 793.28 318C785.923 301.077 775.032 285.061 761.985 272.015C745.75 255.779 725.751 243.783 705 234.309C677.788 221.884 648.32 218.622 619 215.83C589.781 213.048 559.715 215.807 531 221.551C449.225 237.909 368.866 282.75 317.425 349C300.505 370.791 287.374 396.715 282.463 424C280.56 434.576 281 445.304 281 456C281 480.1 288.41 505.483 309 519.958C328.776 533.86 353.638 536 377 536z"/>
</svg>
